<?xml version="1.0" standalone="no"?><svg xmlns="http://www.w3.org/2000/svg" viewBox="0 0 1440 320"><path fill="#316CF4" fill-opacity="0.7" d="M0,256L6.3,245.3C12.6,235,25,213,38,208C50.5,203,63,213,76,218.7C88.4,224,101,224,114,208C126.3,192,139,160,152,144C164.2,128,177,128,189,133.3C202.1,139,215,149,227,154.7C240,160,253,160,265,149.3C277.9,139,291,117,303,144C315.8,171,328,245,341,261.3C353.7,277,366,235,379,197.3C391.6,160,404,128,417,96C429.5,64,442,32,455,53.3C467.4,75,480,149,493,176C505.3,203,518,181,531,186.7C543.2,192,556,224,568,208C581.1,192,594,128,606,128C618.9,128,632,192,644,213.3C656.8,235,669,213,682,192C694.7,171,707,149,720,128C732.6,107,745,85,758,96C770.5,107,783,149,796,192C808.4,235,821,277,834,288C846.3,299,859,277,872,224C884.2,171,897,85,909,80C922.1,75,935,149,947,160C960,171,973,117,985,128C997.9,139,1011,213,1023,250.7C1035.8,288,1048,288,1061,282.7C1073.7,277,1086,267,1099,229.3C1111.6,192,1124,128,1137,112C1149.5,96,1162,128,1175,149.3C1187.4,171,1200,181,1213,197.3C1225.3,213,1238,235,1251,250.7C1263.2,267,1276,277,1288,277.3C1301.1,277,1314,267,1326,261.3C1338.9,256,1352,256,1364,245.3C1376.8,235,1389,213,1402,202.7C1414.7,192,1427,192,1434,192L1440,192L1440,320L1433.7,320C1427.4,320,1415,320,1402,320C1389.5,320,1377,320,1364,320C1351.6,320,1339,320,1326,320C1313.7,320,1301,320,1288,320C1275.8,320,1263,320,1251,320C1237.9,320,1225,320,1213,320C1200,320,1187,320,1175,320C1162.1,320,1149,320,1137,320C1124.2,320,1112,320,1099,320C1086.3,320,1074,320,1061,320C1048.4,320,1036,320,1023,320C1010.5,320,998,320,985,320C972.6,320,960,320,947,320C934.7,320,922,320,909,320C896.8,320,884,320,872,320C858.9,320,846,320,834,320C821.1,320,808,320,796,320C783.2,320,771,320,758,320C745.3,320,733,320,720,320C707.4,320,695,320,682,320C669.5,320,657,320,644,320C631.6,320,619,320,606,320C593.7,320,581,320,568,320C555.8,320,543,320,531,320C517.9,320,505,320,493,320C480,320,467,320,455,320C442.1,320,429,320,417,320C404.2,320,392,320,379,320C366.3,320,354,320,341,320C328.4,320,316,320,303,320C290.5,320,278,320,265,320C252.6,320,240,320,227,320C214.7,320,202,320,189,320C176.8,320,164,320,152,320C138.9,320,126,320,114,320C101.1,320,88,320,76,320C63.2,320,51,320,38,320C25.3,320,13,320,6,320L0,320Z"></path></svg>